<?xml version="1.0" standalone="no"?>
<!DOCTYPE svg PUBLIC "-//W3C//DTD SVG 20010904//EN"
 "http://www.w3.org/TR/2001/REC-SVG-20010904/DTD/svg10.dtd">
<svg version="1.0" xmlns="http://www.w3.org/2000/svg"
 width="750.000000pt" height="750.000000pt" viewBox="0 0 750.000000 750.000000"
 preserveAspectRatio="xMidYMid meet">
<metadata>
Created by potrace 1.15, written by Peter Selinger 2001-2017
</metadata>
<g transform="translate(0.000000,750.000000) scale(0.100000,-0.100000)"
fill="#000000" stroke="none">
<path d="M0 3750 l0 -3750 3750 0 3750 0 0 3750 0 3750 -3750 0 -3750 0 0
-3750z m4110 2475 c534 -82 1020 -326 1395 -700 749 -750 939 -1886 475 -2840
-122 -250 -252 -435 -450 -639 -135 -138 -253 -238 -395 -333 -738 -495 -1672
-558 -2471 -168 -494 241 -893 638 -1134 1130 -88 179 -133 303 -180 490 -55
216 -73 371 -73 610 0 295 37 522 129 795 248 734 837 1315 1580 1559 169 55
327 87 574 115 80 9 451 -4 550 -19z"/>
<path d="M3474 5814 c-202 -27 -451 -103 -629 -191 -173 -86 -451 -279 -424
-293 8 -4 763 -292 1679 -640 916 -348 1671 -635 1679 -638 19 -7 9 78 -25
212 -67 266 -170 487 -335 720 -76 106 -261 302 -368 388 -304 245 -682 404
-1066 448 -123 14 -389 11 -511 -6z"/>
<path d="M2009 4873 c-243 -379 -358 -876 -305 -1329 39 -336 148 -635 330
-908 41 -61 82 -120 90 -130 15 -19 33 -13 528 176 l513 196 3 613 c2 338 0
718 -3 845 l-7 232 -544 191 c-299 105 -546 191 -549 191 -3 0 -28 -35 -56
-77z"/>
<path d="M3580 3722 l0 -691 38 13 c20 8 408 152 862 321 622 231 854 314 943
333 64 14 117 29 117 32 0 3 -47 15 -104 27 -72 15 -366 116 -967 334 -475
171 -870 314 -876 316 -10 4 -13 -137 -13 -685z"/>
<path d="M4143 2756 c-893 -347 -1623 -633 -1623 -636 0 -13 208 -141 319
-197 303 -151 638 -223 986 -210 311 12 578 79 849 214 531 266 936 767 1075
1332 30 121 32 131 24 130 -5 -1 -738 -285 -1630 -633z"/>
</g>
</svg>
